<svg xmlns="http://www.w3.org/2000/svg" width="16.436" height="15.705" viewBox="0 0 16.436 15.705">
  <path id="LinkedIn" d="M16.436,19.187v6.076H12.913V19.594c0-1.424-.51-2.4-1.785-2.4a1.928,1.928,0,0,0-1.807,1.289,2.41,2.41,0,0,0-.117.859v5.918H5.68s.047-9.6,0-10.6H9.2v1.5l-.023.034H9.2v-.034a3.5,3.5,0,0,1,3.176-1.751C14.7,14.417,16.436,15.932,16.436,19.187ZM1.994,9.558a1.836,1.836,0,1,0-.047,3.662h.024a1.837,1.837,0,1,0,.023-3.662ZM.209,25.263H3.732v-10.6H.209Z" transform="translate(0 -9.558)" fill="#1f6678"/>
</svg>
