<svg xmlns="http://www.w3.org/2000/svg" width="12.835" height="12.264" viewBox="0 0 12.835 12.264">
  <path id="LinkedIn" d="M12.835,17.077v4.745H10.084V17.395c0-1.112-.4-1.871-1.394-1.871A1.505,1.505,0,0,0,7.279,16.53a1.882,1.882,0,0,0-.091.671v4.621H4.436s.037-7.5,0-8.275H7.187V14.72l-.018.027h.018V14.72a2.732,2.732,0,0,1,2.48-1.367C11.477,13.353,12.835,14.535,12.835,17.077ZM1.557,9.558a1.434,1.434,0,1,0-.037,2.86h.018a1.434,1.434,0,1,0,.018-2.86ZM.163,21.822H2.914V13.547H.163Z" transform="translate(0 -9.558)" fill="#fff"/>
</svg>
