<svg xmlns="http://www.w3.org/2000/svg" width="172.996" height="167.607" viewBox="0 0 172.996 167.607">
  <path id="Intersection_1" data-name="Intersection 1" d="M22256.3,20578l35.7-36.484v15.7l-20.342,20.785Zm-49.988,0-82.705-84.518a12.79,12.79,0,0,1,0-17.795l58.883-60.176a12.145,12.145,0,0,1,17.42,0l61.031,62.727a1.426,1.426,0,0,0,1.029.438l29.113-.045a1.38,1.38,0,0,0,.918-.312v11.371c-.3.023-.6.035-.9.035l-29.113.045h-.018a12.094,12.094,0,0,1-8.709-3.682l-61.025-62.734a1.438,1.438,0,0,0-1.031-.436,1.453,1.453,0,0,0-1.035.436l-58.887,60.176a1.522,1.522,0,0,0,0,2.109l19.557,19.867,70.844,72.494Zm-48.137,0-34.5-35.254a12.79,12.79,0,0,1,0-17.795l8.172-8.352,7.832,7.686-8.33,8.51a1.518,1.518,0,0,0,0,2.1l42.18,43.1Zm64.914-15.768,30-30.648a12.131,12.131,0,0,1,8.7-3.687l29.18-.018h.012c.344,0,.686.016,1.023.043v11.461a1.348,1.348,0,0,0-1.023-.408l-29.182.021a1.444,1.444,0,0,0-1.029.432l-29.852,30.512Zm-69.02-67.979,46.4-47.418,7.625,7.893-46.209,47.229-.111.111Zm86.014-71.336a1.444,1.444,0,0,0-2.061,0l-8.189,8.367-7.629-7.893,8.139-8.318a12.145,12.145,0,0,1,17.42,0l44.238,45.211v15.689Z" transform="translate(-22119.502 -20410.893)" fill="#00dcc8" stroke="rgba(0,0,0,0)" stroke-width="1"/>
</svg>
