<svg xmlns="http://www.w3.org/2000/svg" width="65.904" height="70.149" viewBox="0 0 65.904 70.149">
  <path id="Path_21257" data-name="Path 21257" d="M29.149,62.766l-3.169,3.24a.515.515,0,0,1-.74,0L4.078,44.381a.544.544,0,0,1,0-.756l2.993-3.058L4.257,37.8l-2.938,3a4.6,4.6,0,0,0,0,6.4L22.481,68.826a4.36,4.36,0,0,0,6.258,0l3.2-3.266Zm32.29-20.909h0l-10.486.007a4.351,4.351,0,0,0-3.126,1.324L37.045,54.2l2.811,2.767L50.582,46.009a.517.517,0,0,1,.371-.157l10.485-.007a.493.493,0,0,1,.484.33.507.507,0,0,1-.113.582L43.127,65.849a.515.515,0,0,1-.74,0L37.148,60.5c-.012-.011-.022-.023-.032-.034L11.082,33.818l-7.028-7.14a.544.544,0,0,1,0-.755L25.215,4.3a.516.516,0,0,1,.741,0L47.886,26.84a4.346,4.346,0,0,0,3.128,1.324h.007l10.461-.017a4.413,4.413,0,0,0,4.084-2.8,4.582,4.582,0,0,0-.961-4.924L45.91,1.322a4.365,4.365,0,0,0-6.259,0L36.725,4.311l2.742,2.837L42.41,4.142a.515.515,0,0,1,.74,0l18.7,19.105a.51.51,0,0,1,.113.582.492.492,0,0,1-.482.331l-10.463.016a.513.513,0,0,1-.371-.157L28.714,1.479a4.364,4.364,0,0,0-6.258,0L1.295,23.1a4.6,4.6,0,0,0,0,6.395L39.627,68.669a4.36,4.36,0,0,0,6.258,0L64.567,49.577a4.58,4.58,0,0,0,.961-4.929,4.417,4.417,0,0,0-4.09-2.79M28.917,12.736,12.242,29.775l2.77,2.809.04-.042,16.606-16.97Z" transform="translate(-0.001)" fill="#00dcc8"/>
</svg>
