<svg xmlns="http://www.w3.org/2000/svg" width="20.492" height="14.082" viewBox="0 0 20.492 14.082">
  <path id="Subtraction_11" data-name="Subtraction 11" d="M10.246,14.082c-.016,0-1.629,0-3.4-.051C5.8,14,4.9,13.957,4.17,13.906a11.8,11.8,0,0,1-1.924-.244A2.565,2.565,0,0,1,.43,11.881,15.113,15.113,0,0,1,.053,8.875C0,7.871,0,7.049,0,7.041s0-.828.053-1.828A16.83,16.83,0,0,1,.418,2.2a2.614,2.614,0,0,1,.668-1.133A2.565,2.565,0,0,1,2.234.42,12.289,12.289,0,0,1,4.166.18C4.9.125,5.8.082,6.844.053,8.617,0,10.23,0,10.246,0s1.627,0,3.4.053c1.045.029,1.945.072,2.676.127a12.121,12.121,0,0,1,1.922.24A2.562,2.562,0,0,1,20.061,2.2a14.924,14.924,0,0,1,.377,3.012c.055,1,.055,1.82.055,1.828s0,.83-.055,1.834a16.632,16.632,0,0,1-.365,3.006,2.542,2.542,0,0,1-1.816,1.781,11.9,11.9,0,0,1-1.928.244c-.732.051-1.635.094-2.682.125C11.873,14.082,10.262,14.082,10.246,14.082ZM8.15,4.066h0v5.951l5.355-2.977L8.15,4.066Z" fill="#1f6678"/>
</svg>
